<svg width="34" height="28" viewBox="0 0 34 28" fill="none" xmlns="http://www.w3.org/2000/svg">
<path d="M34 12.7273V15.2727H32.4545V16.5455H30.9091V17.8182H29.3636V19.0909H27.8182V20.3636H26.2727V21.6364H24.7273V22.9091H23.1818V24.1818H21.6364V25.4545H20.0909V26.7273H18.5455V28H17V26.7273H15.4545V25.4545H17V24.1818H18.5455V22.9091H20.0909V21.6364H21.6364V20.3636H23.1818V19.0909H24.7273V17.8182H26.2727V16.5455H27.8182V15.2727H0V12.7273H27.8182V11.4545H26.2727V10.1818H24.7273V8.90909H23.1818V7.63636H21.6364V6.36364H20.0909V5.09091H18.5455V3.81818H17V2.54545H15.4545V1.27273H17V0H18.5455V1.27273H20.0909V2.54545H21.6364V3.81818H23.1818V5.09091H24.7273V6.36364H26.2727V7.63636H27.8182V8.90909H29.3636V10.1818H30.9091V11.4545H32.4545V12.7273H34Z" fill="white"/>
</svg>
